<svg xmlns="http://www.w3.org/2000/svg" xmlns:xlink="http://www.w3.org/1999/xlink" xml:space="preserve" version="1.1" style="shape-rendering:geometricPrecision;text-rendering:geometricPrecision;image-rendering:optimizeQuality;" viewBox="0 0 1.121 1.121" x="0px" y="0px" fill-rule="evenodd" clip-rule="evenodd"><defs><style type="text/css">.fil0 {fill:none}, .fil1 {fill:black;fill-rule:nonzero}</style></defs><g><g><path class="fil0" d="M0 1.121c0,-0.373 0,-0.747 0,-1.121 0.374,0 0.748,0 1.121,0 0,0.374 0,0.748 0,1.121 -0.373,0 -0.747,0 -1.121,0z"/><path class="fil1" d="M0.171 0.561c0,0.019 -0.016,0.035 -0.035,0.035 -0.02,0 -0.035,-0.016 -0.035,-0.035 0,-0.127 0.051,-0.242 0.134,-0.326 0.084,-0.083 0.199,-0.134 0.326,-0.134 0.062,0 0.121,0.012 0.175,0.034 0.057,0.024 0.107,0.058 0.15,0.1 0.013,0.014 0.013,0.036 0,0.049 -0.014,0.014 -0.036,0.014 -0.05,0 -0.036,-0.035 -0.079,-0.064 -0.126,-0.084 -0.046,-0.019 -0.096,-0.029 -0.149,-0.029 -0.108,0 -0.206,0.043 -0.276,0.114 -0.071,0.07 -0.114,0.168 -0.114,0.276zm0.78 0c0,-0.02 0.015,-0.035 0.035,-0.035 0.019,0 0.035,0.015 0.035,0.035 0,0.127 -0.052,0.242 -0.135,0.325 -0.083,0.083 -0.198,0.135 -0.325,0.135 -0.062,0 -0.122,-0.012 -0.176,-0.035 -0.056,-0.023 -0.107,-0.057 -0.149,-0.1 -0.014,-0.013 -0.014,-0.035 0,-0.049 0.013,-0.014 0.035,-0.014 0.049,0 0.036,0.036 0.079,0.065 0.127,0.084 0.045,0.019 0.096,0.03 0.149,0.03 0.107,0 0.205,-0.044 0.276,-0.114 0.07,-0.071 0.114,-0.169 0.114,-0.276z"/><path class="fil1" d="M0.01 0.527c-0.013,-0.014 -0.013,-0.036 0,-0.05 0.014,-0.013 0.036,-0.013 0.05,0l0.106 0.107c0.014,0.013 0.014,0.036 0,0.049 -0.014,0.014 -0.036,0.014 -0.049,0l-0.107 -0.106z"/><path class="fil1" d="M0.223 0.477c0.014,-0.013 0.036,-0.013 0.049,0 0.014,0.014 0.014,0.036 0,0.05l-0.106 0.106c-0.014,0.014 -0.036,0.014 -0.049,0 -0.014,-0.013 -0.014,-0.036 0,-0.049l0.106 -0.107z"/><path class="fil1" d="M1.111 0.594c0.014,0.014 0.014,0.036 0,0.05 -0.014,0.014 -0.036,0.014 -0.049,0l-0.107 -0.106c-0.013,-0.014 -0.013,-0.036 0,-0.05 0.014,-0.014 0.036,-0.014 0.05,0l0.106 0.106z"/><path class="fil1" d="M0.899 0.644c-0.014,0.014 -0.036,0.014 -0.05,0 -0.014,-0.014 -0.014,-0.036 0,-0.05l0.106 -0.106c0.014,-0.014 0.036,-0.014 0.05,0 0.014,0.014 0.014,0.036 0,0.05l-0.106 0.106z"/></g></g></svg>